# xmcd
#
# Track frame offsets:
# 150
# 16237
# 33458
# 48736
# 66632
# 80506
# 98645
# 113113
# 126528
# 140780
# 156571
# 172496
# 188179
# 201540
# 216089
# 231826
# 249506
# 268536
# 287809
# 303249
#
# Disc length: 4264 seconds
#
#
# Revision: 1
# Processed by: cddbd v1.5.2PL0 Copyright (c) Steve Scherf et al.
# Submitted via: FreeRIP 2.945 
#
DISCID=4110a614
DTITLE=Rick and Renner - As 20 Mais De Rick and Renner
DYEAR=1900
DGENRE=
TTITLE0=Muleca
TTITLE1=Paixão de Peão
TTITLE2=Na Pontinha do Pé
TTITLE3=Fim De Semana
TTITLE4=Peão que é Peão
TTITLE5=Mau com Você
TTITLE6=Marcas de Batom
TTITLE7=Sofro e Choro
TTITLE8=Tira a Roupa
TTITLE9=Enrosca Enrosca
TTITLE10=Só quero te Dizer
TTITLE11=Poucas e Boas
TTITLE12=Animal Domado
TTITLE13=Você Decide
TTITLE14=Preciso Dizer que te Amo
TTITLE15=Baby
TTITLE16=Cara de Pau
TTITLE17=Quem Será
TTITLE18=Ela é Demais
TTITLE19=De Barretos a Nashville
EXTD=
EXTT0=
EXTT1=
EXTT2=
EXTT3=
EXTT4=
EXTT5=
EXTT6=
EXTT7=
EXTT8=
EXTT9=
EXTT10=
EXTT11=
EXTT12=
EXTT13=
EXTT14=
EXTT15=
EXTT16=
EXTT17=
EXTT18=
EXTT19=
PLAYORDER=
